ffmpeg started on 2025-06-19 at 09:53:22
Report written to "D:\Convert\FFMetrics\reports\ssim_report-6.txt"
Log level: 32
Command line:
ffmpeg -hide_banner -nostdin -i "G:\\\xc0\xed\xe8\xec\xe5\\[\xd2\xee\xef-4]\\Fate\\\xc4\xee\xef\xee\xeb\xed\xe5\xed\xe8\xe5 - \xcf\xee\xf1\xeb\xe5\xe4\xed\xe8\xe9 \xe2\xfb\xe7\xee\xe2 \xed\xe0 \xe1\xe8\xf1\\Fate_Extra_Last_Encore_[12]_[AniLibria_TV]_[HDTV-Rip_720p]_HEVC.mkv" -i "G:\\\xc0\xed\xe8\xec\xe5\\[\xd2\xee\xef-4]\\Fate\\\xc4\xee\xef\xee\xeb\xed\xe5\xed\xe8\xe5 - \xcf\xee\xf1\xeb\xe5\xe4\xed\xe8\xe9 \xe2\xfb\xe7\xee\xe2 \xed\xe0 \xe1\xe8\xf1\\Fate_Extra_Last_Encore_[12]_[AniLibria_TV]_[HDTV-Rip_720p].mkv" -lavfi "[0:v]settb=AVTB,setpts=PTS-STARTPTS,format=pix_fmts=yuv420p10,fps=24000/1001,scale=1280:720:flags=bicubic[main];[1:v]settb=AVTB,setpts=PTS-STARTPTS,format=pix_fmts=yuv420p,fps=24000/1001,scale=1280:720:flags=bicubic[ref];[main][ref]ssim=eof_action=endall:stats_file='D\\:/Convert/FFMetrics/logs/ssim_logfile-6.txt'" -f null -
Input #0, matroska,webm, from 'G:\Аниме\[Топ-4]\Fate\Дополнение - Последний вызов на бис\Fate_Extra_Last_Encore_[12]_[AniLibria_TV]_[HDTV-Rip_720p]_HEVC.mkv':
  Metadata:
    ENCODER         : Lavf61.7.100
  Duration: 00:24:00.17, start: -0.021000, bitrate: 1014 kb/s
  Stream #0:0(jpn): Video: hevc (Main 10), yuv420p10le(tv, bt709, progressive), 1280x720 [SAR 1:1 DAR 16:9], 23.81 fps, 23.81 tbr, 1k tbn (default)
      Metadata:
        ENCODER         : Lavc61.19.100 libx265
        BPS             : 816152
        DURATION        : 00:24:00.096000000
        NUMBER_OF_FRAMES: 34526
        NUMBER_OF_BYTES : 146917184
        _STATISTICS_WRITING_APP: mkvpropedit v66.0.0 ('Josie') 64-bit
        _STATISTICS_WRITING_DATE_UTC: 2025-06-17 13:47:12
        _STATISTICS_TAGS: BPS DURATION NUMBER_OF_FRAMES NUMBER_OF_BYTES
  Stream #0:1(rus): Audio: aac (LC), 48000 Hz, stereo, fltp (default) (forced)
      Metadata:
        title           : Ados Amikiri Anzen Hekomi Silv
        ENCODER         : Lavc61.19.100 aac
        BPS             : 193923
        DURATION        : 00:24:00.149000000
        NUMBER_OF_FRAMES: 67508
        NUMBER_OF_BYTES : 34909902
        _STATISTICS_WRITING_APP: mkvpropedit v66.0.0 ('Josie') 64-bit
        _STATISTICS_WRITING_DATE_UTC: 2025-06-17 13:47:12
        _STATISTICS_TAGS: BPS DURATION NUMBER_OF_FRAMES NUMBER_OF_BYTES
  Stream #0:2(rus): Subtitle: subrip (srt)
      Metadata:
        title           : Полные
        BPS             : 117
        DURATION        : 00:21:56.930000000
        NUMBER_OF_FRAMES: 213
        NUMBER_OF_BYTES : 19352
        _STATISTICS_WRITING_APP: mkvpropedit v66.0.0 ('Josie') 64-bit
        _STATISTICS_WRITING_DATE_UTC: 2025-06-17 13:47:12
        _STATISTICS_TAGS: BPS DURATION NUMBER_OF_FRAMES NUMBER_OF_BYTES
Input #1, matroska,webm, from 'G:\Аниме\[Топ-4]\Fate\Дополнение - Последний вызов на бис\Fate_Extra_Last_Encore_[12]_[AniLibria_TV]_[HDTV-Rip_720p].mkv':
  Metadata:
    encoder         : libebml v1.4.2 + libmatroska v1.6.4
    creation_time   : 2024-12-27T10:00:34.000000Z
  Duration: 00:24:00.15, start: 0.000000, bitrate: 2483 kb/s
  Stream #1:0(jpn): Video: h264 (Main), yuv420p(tv, bt709, progressive), 1280x720, SAR 1:1 DAR 16:9, 23.81 fps, 23.81 tbr, 1k tbn (default)
      Metadata:
        BPS             : 2288562
        DURATION        : 00:24:00.077000000
        NUMBER_OF_FRAMES: 34526
        NUMBER_OF_BYTES : 411963213
        _STATISTICS_WRITING_APP: mkvmerge v66.0.0 ('Josie') 64-bit
        _STATISTICS_WRITING_DATE_UTC: 2024-12-27 10:00:34
        _STATISTICS_TAGS: BPS DURATION NUMBER_OF_FRAMES NUMBER_OF_BYTES
  Stream #1:1(rus): Audio: aac (LC), 48000 Hz, stereo, fltp (default) (forced)
      Metadata:
        title           : Ados Amikiri Anzen Hekomi Silv
        BPS             : 192093
        DURATION        : 00:24:00.149000000
        NUMBER_OF_FRAMES: 67507
        NUMBER_OF_BYTES : 34580324
        _STATISTICS_WRITING_APP: mkvmerge v66.0.0 ('Josie') 64-bit
        _STATISTICS_WRITING_DATE_UTC: 2024-12-27 10:00:34
        _STATISTICS_TAGS: BPS DURATION NUMBER_OF_FRAMES NUMBER_OF_BYTES
  Stream #1:2(rus): Subtitle: subrip (srt)
      Metadata:
        title           : Полные
        BPS             : 117
        DURATION        : 00:21:56.930000000
        NUMBER_OF_FRAMES: 213
        NUMBER_OF_BYTES : 19352
        _STATISTICS_WRITING_APP: mkvmerge v66.0.0 ('Josie') 64-bit
        _STATISTICS_WRITING_DATE_UTC: 2024-12-27 10:00:34
        _STATISTICS_TAGS: BPS DURATION NUMBER_OF_FRAMES NUMBER_OF_BYTES
Stream mapping:
  Stream #0:0 (hevc) -> settb:default
  Stream #1:0 (h264) -> settb:default
  ssim:default -> Stream #0:0 (wrapped_avframe)
  Stream #0:1 -> #0:1 (aac (native) -> pcm_s16le (native))
Output #0, null, to 'pipe:':
  Metadata:
    encoder         : Lavf61.7.100
  Stream #0:0: Video: wrapped_avframe, yuv420p10le(tv, bt709, progressive), 1280x720 [SAR 1:1 DAR 16:9], q=2-31, 200 kb/s, 23.98 fps, 23.98 tbn
      Metadata:
        encoder         : Lavc61.19.100 wrapped_avframe
  Stream #0:1(rus): Audio: pcm_s16le, 48000 Hz, stereo, s16, 1536 kb/s (default) (forced)
      Metadata:
        title           : Ados Amikiri Anzen Hekomi Silv
        _STATISTICS_TAGS: BPS DURATION NUMBER_OF_FRAMES NUMBER_OF_BYTES
        BPS             : 193923
        DURATION        : 00:24:00.149000000
        NUMBER_OF_FRAMES: 67508
        NUMBER_OF_BYTES : 34909902
        _STATISTICS_WRITING_APP: mkvpropedit v66.0.0 ('Josie') 64-bit
        _STATISTICS_WRITING_DATE_UTC: 2025-06-17 13:47:12
        encoder         : Lavc61.19.100 pcm_s16le
frame=  490 fps=0.0 q=-0.0 size=N/A time=00:00:20.43 bitrate=N/A speed=38.8x    frame=  988 fps=952 q=-0.0 size=N/A time=00:00:41.20 bitrate=N/A speed=39.7x    frame= 1463 fps=945 q=-0.0 size=N/A time=00:01:01.01 bitrate=N/A speed=39.4x    frame= 1946 fps=938 q=-0.0 size=N/A time=00:01:21.16 bitrate=N/A speed=39.1x    frame= 2380 fps=922 q=-0.0 size=N/A time=00:01:39.26 bitrate=N/A speed=38.4x    frame= 2869 fps=924 q=-0.0 size=N/A time=00:01:59.66 bitrate=N/A speed=38.5x    frame= 3311 fps=916 q=-0.0 size=N/A time=00:02:18.09 bitrate=N/A speed=38.2x    frame= 3776 fps=915 q=-0.0 size=N/A time=00:02:37.49 bitrate=N/A speed=38.2x    frame= 4137 fps=889 q=-0.0 size=N/A time=00:02:52.54 bitrate=N/A speed=37.1x    frame= 4643 fps=899 q=-0.0 size=N/A time=00:03:13.65 bitrate=N/A speed=37.5x    frame= 5005 fps=882 q=-0.0 size=N/A time=00:03:28.75 bitrate=N/A speed=36.8x    frame= 5415 fps=874 q=-0.0 size=N/A time=00:03:45.85 bitrate=N/A speed=36.4x    frame= 5863 fps=874 q=-0.0 size=N/A time=00:04:04.53 bitrate=N/A speed=36.5x    frame= 6391 fps=885 q=-0.0 size=N/A time=00:04:26.55 bitrate=N/A speed=36.9x    frame= 6928 fps=894 q=-0.0 size=N/A time=00:04:48.95 bitrate=N/A speed=37.3x    frame= 7392 fps=895 q=-0.0 size=N/A time=00:05:08.30 bitrate=N/A speed=37.3x    frame= 7847 fps=895 q=-0.0 size=N/A time=00:05:27.28 bitrate=N/A speed=37.3x    frame= 8327 fps=896 q=-0.0 size=N/A time=00:05:47.30 bitrate=N/A speed=37.4x    frame= 8928 fps=911 q=-0.0 size=N/A time=00:06:12.37 bitrate=N/A speed=  38x    frame= 9431 fps=914 q=-0.0 size=N/A time=00:06:33.35 bitrate=N/A speed=38.1x    frame= 9935 fps=916 q=-0.0 size=N/A time=00:06:54.37 bitrate=N/A speed=38.2x    frame=10417 fps=918 q=-0.0 size=N/A time=00:07:14.47 bitrate=N/A speed=38.3x    frame=10908 fps=920 q=-0.0 size=N/A time=00:07:34.95 bitrate=N/A speed=38.4x    frame=11455 fps=925 q=-0.0 size=N/A time=00:07:57.76 bitrate=N/A speed=38.6x    frame=12062 fps=935 q=-0.0 size=N/A time=00:08:23.08 bitrate=N/A speed=  39x    frame=12592 fps=939 q=-0.0 size=N/A time=00:08:45.19 bitrate=N/A speed=39.2x    frame=13182 fps=946 q=-0.0 size=N/A time=00:09:09.79 bitrate=N/A speed=39.5x    frame=13703 fps=949 q=-0.0 size=N/A time=00:09:31.52 bitrate=N/A speed=39.6x    frame=14242 fps=952 q=-0.0 size=N/A time=00:09:54.01 bitrate=N/A speed=39.7x    frame=14808 fps=957 q=-0.0 size=N/A time=00:10:17.61 bitrate=N/A speed=39.9x    frame=15388 fps=963 q=-0.0 size=N/A time=00:10:41.80 bitrate=N/A speed=40.2x    frame=15966 fps=967 q=-0.0 size=N/A time=00:11:05.91 bitrate=N/A speed=40.3x    frame=16563 fps=973 q=-0.0 size=N/A time=00:11:30.81 bitrate=N/A speed=40.6x    frame=17086 fps=974 q=-0.0 size=N/A time=00:11:52.62 bitrate=N/A speed=40.6x    frame=17486 fps=968 q=-0.0 size=N/A time=00:12:09.31 bitrate=N/A speed=40.4x    frame=17930 fps=966 q=-0.0 size=N/A time=00:12:27.83 bitrate=N/A speed=40.3x    frame=18370 fps=963 q=-0.0 size=N/A time=00:12:46.18 bitrate=N/A speed=40.2x    frame=18788 fps=958 q=-0.0 size=N/A time=00:13:03.61 bitrate=N/A speed=  40x    frame=19151 fps=952 q=-0.0 size=N/A time=00:13:18.75 bitrate=N/A speed=39.7x    frame=19648 fps=953 q=-0.0 size=N/A time=00:13:39.48 bitrate=N/A speed=39.7x    frame=19932 fps=942 q=-0.0 size=N/A time=00:13:51.33 bitrate=N/A speed=39.3x    frame=20216 fps=933 q=-0.0 size=N/A time=00:14:03.17 bitrate=N/A speed=38.9x    frame=20620 fps=930 q=-0.0 size=N/A time=00:14:20.02 bitrate=N/A speed=38.8x    frame=21127 fps=931 q=-0.0 size=N/A time=00:14:41.17 bitrate=N/A speed=38.8x    frame=21606 fps=931 q=-0.0 size=N/A time=00:15:01.15 bitrate=N/A speed=38.8x    frame=22020 fps=928 q=-0.0 size=N/A time=00:15:18.41 bitrate=N/A speed=38.7x    frame=22375 fps=923 q=-0.0 size=N/A time=00:15:33.22 bitrate=N/A speed=38.5x    frame=22709 fps=917 q=-0.0 size=N/A time=00:15:47.15 bitrate=N/A speed=38.3x    frame=23136 fps=916 q=-0.0 size=N/A time=00:16:04.96 bitrate=N/A speed=38.2x    frame=23641 fps=917 q=-0.0 size=N/A time=00:16:26.02 bitrate=N/A speed=38.2x    frame=24094 fps=916 q=-0.0 size=N/A time=00:16:44.92 bitrate=N/A speed=38.2x    frame=24597 fps=917 q=-0.0 size=N/A time=00:17:05.94 bitrate=N/A speed=38.3x    frame=25055 fps=917 q=-0.0 size=N/A time=00:17:25.00 bitrate=N/A speed=38.2x    frame=25317 fps=909 q=-0.0 size=N/A time=00:17:35.97 bitrate=N/A speed=37.9x    frame=25641 fps=904 q=-0.0 size=N/A time=00:17:49.44 bitrate=N/A speed=37.7x    frame=25976 fps=899 q=-0.0 size=N/A time=00:18:03.41 bitrate=N/A speed=37.5x    frame=26394 fps=898 q=-0.0 size=N/A time=00:18:20.84 bitrate=N/A speed=37.4x    frame=26796 fps=896 q=-0.0 size=N/A time=00:18:37.61 bitrate=N/A speed=37.4x    frame=27253 fps=896 q=-0.0 size=N/A time=00:18:56.67 bitrate=N/A speed=37.4x    frame=27645 fps=893 q=-0.0 size=N/A time=00:19:13.02 bitrate=N/A speed=37.3x    frame=27978 fps=889 q=-0.0 size=N/A time=00:19:26.91 bitrate=N/A speed=37.1x    frame=28276 fps=884 q=-0.0 size=N/A time=00:19:39.34 bitrate=N/A speed=36.9x    frame=28606 fps=881 q=-0.0 size=N/A time=00:19:53.10 bitrate=N/A speed=36.7x    frame=28930 fps=876 q=-0.0 size=N/A time=00:20:06.62 bitrate=N/A speed=36.6x    frame=29218 fps=872 q=-0.0 size=N/A time=00:20:18.63 bitrate=N/A speed=36.4x    frame=29639 fps=871 q=-0.0 size=N/A time=00:20:36.19 bitrate=N/A speed=36.3x    frame=30144 fps=872 q=-0.0 size=N/A time=00:20:57.25 bitrate=N/A speed=36.4x    frame=30721 fps=876 q=-0.0 size=N/A time=00:21:21.32 bitrate=N/A speed=36.5x    frame=31227 fps=878 q=-0.0 size=N/A time=00:21:42.42 bitrate=N/A speed=36.6x    frame=31728 fps=879 q=-0.0 size=N/A time=00:22:03.32 bitrate=N/A speed=36.7x    frame=32032 fps=875 q=-0.0 size=N/A time=00:22:16.00 bitrate=N/A speed=36.5x    frame=32287 fps=870 q=-0.0 size=N/A time=00:22:26.63 bitrate=N/A speed=36.3x    frame=32585 fps=865 q=-0.0 size=N/A time=00:22:39.06 bitrate=N/A speed=36.1x    frame=32905 fps=862 q=-0.0 size=N/A time=00:22:52.41 bitrate=N/A speed=  36x    frame=33157 fps=857 q=-0.0 size=N/A time=00:23:02.92 bitrate=N/A speed=35.7x    frame=33418 fps=853 q=-0.0 size=N/A time=00:23:13.80 bitrate=N/A speed=35.6x    frame=33821 fps=852 q=-0.0 size=N/A time=00:23:30.61 bitrate=N/A speed=35.5x    frame=34229 fps=851 q=-0.0 size=N/A time=00:23:47.63 bitrate=N/A speed=35.5x    [Parsed_ssim_10 @ 000001fa557fa1c0] SSIM Y:0.976947 (16.372648) U:0.982819 (17.649476) V:0.982739 (17.629429) All:0.978891 (16.755274)
[out#0/null @ 000001fa4f841c00] video:14836KiB audio:270032KiB subtitle:0KiB other streams:0KiB global headers:0KiB muxing overhead: unknown
frame=34527 fps=852 q=-0.0 Lsize=N/A time=00:24:00.06 bitrate=N/A speed=35.5x    
